<?xml version="1.0" encoding="UTF-8"?>
<svg id="Ebene_2" data-name="Ebene 2" xmlns="http://www.w3.org/2000/svg" xmlns:xlink="http://www.w3.org/1999/xlink" viewBox="0 0 432.46 202.88">
  <defs>
    <style>
      .cls-1 {
        fill: #fff;
      }

      .cls-2 {
        fill: #222;
      }

      .cls-3 {
        fill: #0083aa;
      }

      .cls-4 {
        clip-path: url(#clippath-1);
      }

      .cls-5 {
        clip-path: url(#clippath);
      }

      .cls-6 {
        fill: none;
      }

      .cls-7 {
        fill: #d87b0b;
      }
    </style>
    <clipPath id="clippath">
      <rect class="cls-6" x="0" y="0" width="432.46" height="202.88"/>
    </clipPath>
    <clipPath id="clippath-1">
      <rect class="cls-6" x="0" y="0" width="432.46" height="202.88"/>
    </clipPath>
  </defs>
  <g id="logo">
    <g class="cls-5">
      <g class="cls-4">
        <path class="cls-3" d="M106.38,47.07c-9.46,.97-19,2.75-28.58,4.95-9.58,2.19-19.18,4.98-28.64,8.62-4.72,1.82-9.41,3.86-13.99,6.23-4.58,2.36-9.08,5.01-13.33,8.19-4.23,3.18-8.29,6.84-11.56,11.44-1.62,2.3-3.06,4.83-4.05,7.62-.52,1.38-.89,2.84-1.16,4.31l-.18,1.11c-.06,.37-.08,.79-.12,1.19l-.05,.6c-.01,.2-.01,.34-.02,.51l-.03,.98c.02,6.32,2.48,11.89,5.78,16.39,3.31,4.53,7.39,8.1,11.64,11.2,4.27,3.09,8.78,5.67,13.37,7.93,4.59,2.27,9.28,4.22,14.01,5.95,9.3,3.41,16.61,5.96,26.01,8,.05-.59,.09-1.19,.15-1.78,.04-2.12,.07-4.23,.11-6.35-10.88-3-19.12-6.58-28.06-10.82C10.92,115.92-.57,83.24,79.35,59.67c36.89-10.88,97.71-8.88,123.88-9.01-5.82-1.5-48.44-8.58-96.85-3.59"/>
        <path class="cls-3" d="M349.67,129.76c-3.3,1.09-11.78,4.56-20.09,6.88-10.09,2.81-19.92,4.4-19.92,4.4,3.58,2.58,5.34,6.48,5.34,6.48,.19,0,.39-.03,.64-.1,12.05-3.2,24.39-8.15,34.89-14.85,.96-.61,1.9-1.27,2.88-1.94-1.87-1.58-1.85-1.51-3.74-.88"/>
        <polygon class="cls-7" points="81.02 161.87 81.02 138.44 88.71 138.44 88.71 156.4 99.25 156.4 99.25 161.87 81.02 161.87"/>
        <path class="cls-7" d="M114.03,161.87l-.33-1.82c-1.92,1.79-3.87,2.31-6.41,2.31-3.22,0-6.09-1.59-6.09-5.14,0-7.75,12.14-4.23,12.14-7.42,0-1.24-1.5-1.4-2.21-1.4-.94,0-2.21,.2-2.38,1.66h-6.51c0-3.61,2.57-5.73,9.31-5.73,8.07,0,8.56,2.99,8.56,7.06v7.98c0,.98,.03,1.46,.91,2.18v.32h-7Zm-.68-7.55c-2.21,1.07-5.14,.55-5.14,2.77,0,.85,.81,1.43,2.15,1.43,2.38,0,3.16-1.86,3-4.2"/>
        <path class="cls-7" d="M129.37,156.57c0,.68,.26,1.21,.72,1.56,.42,.33,1.01,.52,1.66,.52,1.04,0,2.15-.32,2.15-1.53,0-2.73-10.45-.55-10.45-7.16,0-4.36,4.52-5.63,8.07-5.63s8.07,.85,8.46,5.37h-6.15c-.07-.55-.29-.94-.65-1.24-.36-.29-.85-.42-1.37-.42-1.17,0-1.92,.36-1.92,1.2,0,2.38,10.78,.78,10.78,7.16,0,3.55-2.93,5.96-9.18,5.96-3.91,0-8.2-1.2-8.56-5.79h6.45Z"/>
        <path class="cls-7" d="M154.42,161.87c-8.89,.49-9.96-.13-9.96-6.02v-7.13h-2.41v-3.91h2.51v-5.31h6.67v5.31h3.26v3.91h-3.26v6.19c0,1.56,.23,2.12,2.12,2.12h1.07v4.85Z"/>
        <path class="cls-7" d="M163.25,154.87c0,2.02,1.56,3.35,3.35,3.35,1.07,0,2.05-.49,2.54-1.5h6.48c-1.17,4.23-5.47,5.63-9.44,5.63-5.47,0-9.7-3.12-9.7-8.85s4.2-9.18,9.67-9.18c6.31,0,10.12,4.36,10.03,10.55h-12.92Zm6.15-3.45c0-1.56-1.4-2.96-3-2.96-2.02,0-3.16,1.14-3.16,2.96h6.15Z"/>
        <path class="cls-7" d="M178.71,144.82h6.19v2.67c1.53-2.05,3.19-3.16,5.76-3.16,4.49,0,6.61,2.64,6.61,7.32v10.22h-6.77v-9.02c0-1.69-.46-3.19-2.38-3.19-2.08,0-2.64,1.33-2.64,3.52v8.69h-6.77v-17.06Z"/>
        <path class="cls-7" d="M206.31,156.57c0,.68,.26,1.21,.72,1.56,.42,.33,1.01,.52,1.66,.52,1.04,0,2.15-.32,2.15-1.53,0-2.73-10.45-.55-10.45-7.16,0-4.36,4.52-5.63,8.07-5.63s8.07,.85,8.46,5.37h-6.15c-.06-.55-.29-.94-.65-1.24-.36-.29-.85-.42-1.37-.42-1.17,0-1.92,.36-1.92,1.2,0,2.38,10.78,.78,10.78,7.16,0,3.55-2.93,5.96-9.18,5.96-3.91,0-8.2-1.2-8.56-5.79h6.45Z"/>
        <path class="cls-7" d="M231.35,161.87c-8.89,.49-9.96-.13-9.96-6.02v-7.13h-2.41v-3.91h2.51v-5.31h6.67v5.31h3.26v3.91h-3.26v6.19c0,1.56,.23,2.12,2.12,2.12h1.07v4.85Z"/>
        <path class="cls-7" d="M234.59,144.82h6.15v3.45h.07c.94-2.67,2.6-3.94,5.24-3.94,.29,0,.59,.07,.88,.1v6.77c-.46-.07-.94-.2-1.4-.2-2.77,0-4.17,1.3-4.17,4.98v5.89h-6.77v-17.06Z"/>
        <path class="cls-7" d="M260.81,161.87l-.33-1.82c-1.92,1.79-3.87,2.31-6.41,2.31-3.22,0-6.09-1.59-6.09-5.14,0-7.75,12.14-4.23,12.14-7.42,0-1.24-1.5-1.4-2.21-1.4-.94,0-2.21,.2-2.38,1.66h-6.51c0-3.61,2.57-5.73,9.31-5.73,8.07,0,8.56,2.99,8.56,7.06v7.98c0,.98,.03,1.46,.91,2.18v.32h-7Zm-.68-7.55c-2.21,1.07-5.14,.55-5.14,2.77,0,.85,.81,1.43,2.15,1.43,2.38,0,3.16-1.86,3-4.2"/>
        <path class="cls-7" d="M279.08,147.16c1.63,.03,2.57-.68,2.57-2.34,0-1.37-.68-2.44-2.21-2.44-2.18,0-2.15,1.63-2.15,3.35v16.15h-6.77v-15.92c0-5.89,3.45-8.14,8.98-8.14,4.88,0,8.5,2.08,8.5,6.09,0,2.18-.94,3.71-2.9,4.62,3.09,1.17,4.26,3.03,4.26,6.31,0,4.92-3.52,7.52-7.55,7.52-.94,0-1.86-.1-2.8-.29v-4.2c2.73,.46,3.58-.85,3.58-3.35s-.91-3.71-3.52-3.65v-3.71Z"/>
        <path class="cls-7" d="M298.28,154.87c0,2.02,1.56,3.35,3.35,3.35,1.07,0,2.05-.49,2.54-1.5h6.48c-1.17,4.23-5.47,5.63-9.44,5.63-5.47,0-9.7-3.12-9.7-8.85s4.2-9.18,9.67-9.18c6.31,0,10.12,4.36,10.03,10.55h-12.92Zm6.15-3.45c0-1.56-1.4-2.96-3-2.96-2.02,0-3.16,1.14-3.16,2.96h6.15Z"/>
        <path class="cls-3" d="M189.44,195.11c-2.2-5.29-6.67-16.81-6.67-16.81-1.85-4.75-3.62-9.8-5.3-15.13-.04-.11-.07-.22-.1-.33-.86,1.24-1.89,2.35-3.05,3.28,3.2,8.33,14.13,31.13,14.68,31.83,.06-.08,.1-.15,.16-.22,.03,.05,.07,.11,.1,.16,0-.1,0-.19,0-.29,.79-1.12,.71-1.23,.19-2.47"/>
        <path class="cls-3" d="M207.77,35.93c-1.7-3.31-3.53-6.59-5.54-9.8-2-3.21-4.17-6.35-6.63-9.34-2.47-2.98-5.22-5.83-8.6-8.19-1.71-1.15-3.58-2.19-5.71-2.84-1.06-.33-2.18-.57-3.34-.64-.29-.03-.58-.03-.87-.03-.29,0-.58,0-.92,.02l-.49,.04c-.17,.01-.33,.03-.42,.05l-.8,.13c-2.32,.47-4.45,1.59-6.13,3.01-1.71,1.41-3.02,3.08-4.15,4.79-2.2,3.45-3.63,7.12-4.75,10.8-2.2,7.37-3.2,14.85-3.79,22.23-.56,7.39-.63,14.73-.41,21.95,.22,7.22,.75,14.33,1.5,21.29,1.5,13.93,3.79,27.27,6.66,39.76,.79,3.44,2.69,7.88,3.56,11.19,1.92,.16,3.75,.65,5.44,1.4-.94-3.97-2.91-9.1-3.76-13.26-1.25-6.23-2.41-12.65-3.41-19.24-.99-6.59-1.83-13.35-2.44-20.24-.62-6.89-1.02-13.91-1.12-21.01-.1-7.1,.09-11.08,.76-18.25,.69-7.15,1.8-12.22,3.95-18.99,1.08-3.37,2.46-6.64,4.3-9.42,1.84-2.76,4.23-5.27,6.94-5.36,16.17-.49,35.36,47.2,36.49,50.73h5.19c-1.38-4.32-8.11-24.15-11.51-30.78"/>
        <path class="cls-7" d="M310.91,133.97V68.02h-13.81c-.64,5.11-2.89,8.88-6.99,11.47-4,2.52-8.55,3.13-13.18,3.41v11.75h16.01v39.32h17.98Z"/>
        <path class="cls-2" d="M233.23,68.82v48.96h29.13v14.85h-47.22v-63.81h18.09Zm-92.66,0v63.72h-18.13v-26.04h-21.1v25.96h-18.2v-63.62h18.15v22.7h21.09v-22.72h18.19m64.83,0v14.66h-18.36v49.11h-18.3v-48.99h-18.42v-14.78h55.07m29.97-2.15h-22.36v68.08h51.49v-19.12h-29.13v-48.96Zm-92.66,0h-22.46v22.72h-16.82v-22.7h-22.42v67.89h22.47v-25.96h16.82v26.04h22.4V66.69Zm64.83,0h-59.35v19.05h18.42v48.99h22.57v-49.11h18.36v-18.93Z"/>
        <path class="cls-3" d="M373.8,27.84c-28.34,0-51.4,23.06-51.4,51.4s23.06,51.4,51.4,51.4,51.4-23.06,51.4-51.4-23.06-51.4-51.4-51.4m0,101c-.58,0-1.16-.02-1.73-.04-1.34-.11-2.69-.27-4.03-.47,1.01-.96,2.1-2.6,3.24-4.9,6.44,.97,12.85,1.06,18.76,.17-1.27,1.55-2.64,2.79-4.08,3.73-3.89,.98-7.96,1.51-12.15,1.51m-23.87-6.14c-.35-1.38-.4-3.33-.12-5.84,5.93,2.83,12.35,4.9,18.79,6.11-1.03,2.32-1.98,3.98-2.82,4.97-4.98-.93-9.94-2.49-14.59-4.58-.42-.22-.85-.43-1.26-.66m-8.19-81.26c.19-.11,.37-.23,.57-.34-1.83,3.1-2.51,6.63-2.01,10.32-3.69,2.65-6.94,5.68-9.62,9.04-.27-1.99-.23-3.94,.08-5.82,2.88-5.01,6.6-9.48,10.98-13.2m20.9-10.52c-2.74,1.26-4.82,2.92-6.22,4.85-4.14,.52-8.03,1.61-11.57,3.23,5.25-3.79,11.28-6.58,17.79-8.08m42.16,9.64c1.48,1.59,2.64,3.22,3.46,4.85-3.16-1.83-6.82-3.21-10.9-4.04-.56-1.1-1.4-2.2-2.55-3.25-.22-.21-.45-.41-.69-.6,2.41-.38,4.58-.36,6.5,.04,1.45,.93,2.84,1.94,4.18,3.01m9.86,10.6c1.6,2.32,3,4.78,4.19,7.36,.52,2.4,.54,4.75,.06,6.97-2.06-3.69-4.73-7.18-7.94-10.36,.54-2.45,.24-5.12-.9-7.82,1.7,1.16,3.23,2.45,4.6,3.85m-90.24,23.49c1.19-3.88,3.06-7.56,5.51-10.97,.98,4.42,3.36,9,7.18,13.45-2.27,3.88-4.06,7.85-5.25,11.81,0,.02-.01,.05-.02,.07-3.94-4.58-6.41-9.3-7.46-13.86,.01-.17,.02-.33,.04-.5m52.66-40.3c1.38-.47,2.94-.68,4.56-.64,1.14,1.81,2.23,4.06,3.22,6.79-.76-2.71-1.62-4.96-2.55-6.76,1.64,.1,3.33,.43,4.95,.97-.66,1.48-1.46,3.41-2.4,5.79,1.17-2.29,2.19-4.14,3.06-5.55,1.6,.6,3.11,1.4,4.41,2.38-2.29,.65-4.79,1.7-7.48,3.17,2.87-1.33,5.55-2.24,8-2.76,.2,.17,.4,.34,.59,.52,.98,.91,1.71,1.85,2.19,2.79-3.35-.55-6.95-.75-10.78-.56,3.9-.03,7.59,.32,11,1.02,.48,1.12,.6,2.23,.37,3.25-3.54-1.74-7.34-3.18-11.38-4.27q5.87,2.02,11.26,4.68c-.32,.99-.98,1.88-1.98,2.6-2.87-2.7-5.97-5.15-9.29-7.28q4.64,3.49,8.86,7.56c-.43,.26-.91,.5-1.44,.7-.53,.2-1.12,.37-1.7,.48-1.72-3.17-3.63-6.11-5.71-8.74,1.87,2.67,3.57,5.65,5.09,8.85-1.52,.23-3.17,.21-4.83-.04,.03-3.19-.05-6.16-.26-8.81-.09,3.5-.13,4.38-.43,8.69-1.66-.31-3.31-.84-4.84-1.57,1.8-2.65,3.57-5.05,5.27-7.12-1.92,1.96-3.89,4.26-5.89,6.81-1.25-.65-2.39-1.44-3.37-2.35-.19-.18-.37-.36-.55-.54,3.26-1.63,6.55-2.95,9.81-3.92-3.41,.81-6.84,1.98-10.23,3.47-.95-1.11-1.55-2.26-1.79-3.36,3.96-.4,7.99-.45,12.02-.11-4.06-.5-8.11-.61-12.1-.35-.15-1.09,.05-2.13,.6-3.05,3.8,.72,7.66,1.84,11.51,3.4-3.77-1.68-7.54-2.93-11.26-3.77,.64-.88,1.61-1.63,2.92-2.16,2.79,1.53,5.58,3.51,8.34,5.93-2.57-2.5-5.18-4.54-7.79-6.14m23.48,47.83c1.98-.4,3.89-.94,5.7-1.61,0,0,.01,0,.02,0,0,0,0,0,0,0,1.8-.68,3.46-1.48,4.91-2.37,1.29,4.53,2.06,9.08,2.25,13.52-1.7,1.04-3.61,1.97-5.72,2.76-2.12,.79-4.37,1.43-6.69,1.9,.24-4.6,.07-9.38-.47-14.19m5.3-3.56c-1.76,.66-3.61,1.18-5.54,1.57-.64-4.81-1.65-9.62-3-14.26,1.41-.29,2.79-.68,4.08-1.15h0s0,0,.01,0c0,0,0,0,.01,0h0c1.28-.48,2.44-1.04,3.48-1.68,2.38,4.26,4.32,8.72,5.74,13.24-1.41,.86-3.02,1.64-4.78,2.3m-35.47-19.01c-2.83-1.48-5.44-3.27-7.66-5.33-.44-.4-.85-.81-1.24-1.22,3.81-2.97,7.81-5.6,11.88-7.77,.2,.21,.41,.42,.64,.62,1.14,1.05,2.48,1.97,3.93,2.73-2.52,3.31-5.06,7.01-7.54,10.96m8.27-10.59c1.78,.85,3.7,1.47,5.64,1.83-.35,4.06-.86,8.46-1.5,13.04-3.77-.71-7.52-1.92-10.99-3.57,2.27-4.05,4.58-7.87,6.85-11.3m-18.12,3c-2.17-2.52-3.52-5.12-4.07-7.63,4.56-1.68,9.38-2.89,14.32-3.55,.29,1.29,.98,2.62,2.09,3.91-4.23,1.99-8.39,4.45-12.34,7.26m.69,3.58c2.36,2.18,5.12,4.08,8.13,5.66-2.47,4.01-4.87,8.25-7.13,12.58-4.09-2.15-7.86-4.73-11.07-7.7-.63-.58-1.23-1.17-1.79-1.76,3.24-3.6,6.79-6.99,10.55-10.06,.42,.43,.85,.87,1.32,1.29m-11.34,12.08c3.31,3.06,7.2,5.73,11.41,7.94-2.22,4.35-4.28,8.76-6.1,13.09-4.92-2.58-9.45-5.69-13.32-9.27-.76-.7-1.48-1.41-2.16-2.12,2.36-3.94,5.17-7.8,8.32-11.46,.58,.61,1.2,1.21,1.85,1.81m7.07,24.07c6.11,2.92,12.73,5.05,19.37,6.3-1.09,4.51-2.24,8.82-3.42,12.78,0,.02-.01,.05-.02,.07-6.95-1.3-13.87-3.54-20.26-6.59,0-.02,.01-.05,.02-.07,1.19-3.96,2.65-8.17,4.32-12.49m.71-1.8c1.74-4.38,3.68-8.85,5.75-13.27,5.17,2.46,10.75,4.27,16.37,5.32-.92,4.79-1.93,9.57-3.01,14.16-6.55-1.23-13.08-3.33-19.11-6.21m6.61-15.1c2.1-4.4,4.32-8.73,6.58-12.85,3.68,1.75,7.66,3.04,11.66,3.79-.67,4.63-1.47,9.43-2.36,14.22-5.45-1.02-10.87-2.77-15.88-5.16m19.89-8.78c4,.6,7.97,.66,11.64,.1,1.14,4.68,1.97,9.53,2.46,14.36-5,.75-10.41,.68-15.86-.14,.72-4.82,1.32-9.65,1.76-14.32m9.26-15.74c.62-.23,1.17-.5,1.67-.81,3.32,3.61,6.26,7.59,8.77,11.8-.98,.6-2.07,1.13-3.29,1.58-1.33,.49-1.51,.54-3.85,1.09-1.44-4.6-3.21-9.02-5.29-13.1,.76-.16,.83-.18,1.97-.56,0,0,0,0,.01,0,0,0,0,0,0,0h0Zm1.88,13.91c-3.46,.52-7.2,.47-10.97-.1,.4-4.62,.66-9.07,.74-13.17,1.93,.29,3.85,.32,5.63,.05,1.83,4.12,3.37,8.58,4.6,13.22m9.54-3.58c-2.65-4.11-5.75-7.98-9.25-11.48,1.16-.83,1.93-1.87,2.3-3.02,4.27,2.47,8.11,5.38,11.43,8.61-.72,2.25-2.22,4.27-4.49,5.89m-33.19-24.35c-4.64-.87-9.18-1.11-13.48-.74,1.44-2,3.66-3.69,6.63-4.91,3.32,.37,6.77,1.4,10.26,3.13-1.52,.62-2.66,1.49-3.4,2.52m-.29,.43c-.63,1.07-.87,2.28-.69,3.55-4.97,.48-9.82,1.52-14.41,3.04-.34-2.48,.12-4.85,1.35-6.93,4.39-.49,9.01-.4,13.75,.33m-12.47,16.45c-3.9,2.91-7.57,6.17-10.91,9.66-3.13-3.65-5.09-7.4-5.89-11.03,3.79-2.65,8-4.92,12.48-6.72,.59,2.66,2.02,5.42,4.32,8.09m-4.52-9.19c-4.51,1.66-8.74,3.79-12.55,6.33-.49-3.58,.17-7,1.95-10.01,3.66-1.77,7.72-3.01,12.03-3.67-1.31,2.21-1.79,4.72-1.43,7.35m-7.76,20.31c-3.25,3.55-6.14,7.32-8.56,11.2-3.77-4.39-6.12-8.91-7.08-13.27,2.66-3.42,5.9-6.54,9.57-9.3,.83,3.74,2.84,7.61,6.07,11.37m-13.51,28.24c.72,.75,1.48,1.5,2.29,2.24,4.1,3.79,8.9,7.09,14.12,9.82-1.08,3.83-1.75,7.15-2.04,9.91-4.92-2.58-9.44-5.69-13.3-9.26-.76-.7-1.48-1.41-2.16-2.12-.25-3.16,.1-6.71,1.1-10.6m2.74,.62c-.8-.74-1.57-1.49-2.29-2.25,0-.03,.01-.05,.02-.07,1.19-3.96,2.95-7.96,5.17-11.9,.69,.72,1.42,1.44,2.19,2.15,3.92,3.63,8.51,6.78,13.5,9.4-1.75,4.28-3.25,8.47-4.44,12.43,0,.02-.01,.05-.02,.07-5.22-2.74-10.03-6.04-14.13-9.83m16.28,12.76c6.39,3.05,13.3,5.28,20.24,6.58-1.18,3.8-2.31,6.95-3.36,9.46-6.54-1.23-13.06-3.33-19.08-6.2,.38-2.72,1.11-6.01,2.19-9.83m23.11,7.07c6.94,1.04,13.84,1.14,20.21,.18-1.28,3.79-2.87,6.94-4.68,9.42-6,.9-12.51,.81-19.05-.17,1.15-2.48,2.33-5.63,3.52-9.43m.49-1.61s.01-.05,.02-.07c1.19-3.96,2.29-8.28,3.3-12.8,6.64,1,13.24,1.09,19.34,.17-.42,4.53-1.22,8.85-2.4,12.81,0,.02-.01,.05-.02,.07-6.38,.96-13.29,.86-20.23-.18m3.73-14.77c.98-4.61,1.87-9.4,2.62-14.22,5.61,.84,11.19,.92,16.34,.15,.39,4.83,.44,9.63,.11,14.25-6.01,.9-12.53,.81-19.08-.17m19.13,14.42c1.19-3.96,1.94-8.27,2.29-12.79,2.35-.47,4.6-1.11,6.74-1.91h0s0,0,.01,0h.02c2.13-.81,4.09-1.76,5.81-2.81,.03,4.38-.52,8.61-1.7,12.57,0,.03-.01,.05-.02,.08-1.81,1.1-3.83,2.08-6.07,2.93-2.24,.84-4.63,1.51-7.1,2.01,0-.02,.01-.05,.02-.07m14.04-33.83c3.37-2.42,5.61-5.43,6.69-8.78,1.86,3.84,3.09,7.84,3.61,11.89-1.26,3.91-3.87,7.43-7.81,10.25-.25-4.4-1.1-8.9-2.49-13.36m7.06-10.19c.43-1.97,.47-4.05,.13-6.18,2.2,5.5,3.45,11.47,3.53,17.72-.54-3.95-1.79-7.84-3.66-11.55m-9.03-10.89c3.17,3.31,5.82,6.93,7.85,10.72-1.04,3.25-3.21,6.17-6.49,8.52-1.54-4.44-3.6-8.82-6.12-12.99,2.4-1.72,3.99-3.87,4.76-6.25m-1.09-2.3c-3.36-3.09-7.24-5.84-11.55-8.15,.26-1.18,.12-2.47-.44-3.78,4.17,1.02,7.91,2.57,11.14,4.56,1.08,2.55,1.36,5.06,.85,7.37m-10.46-17.21c-1.67-.21-3.56-.08-5.64,.4-1.52-1.14-3.28-2.07-5.14-2.77,.55-.85,1.03-1.49,1.44-1.95,3.28,1.12,6.41,2.57,9.34,4.32m-11.56-2.65c-1.88-.63-3.85-1.02-5.76-1.13-.69-1.19-1.41-2.13-2.16-2.85,3.08,.36,6.07,1,8.95,1.9-.28,.5-.62,1.19-1.03,2.08m-13.79-4.34c1.52,0,3.03,.08,4.52,.21,.93,.73,1.84,1.71,2.72,2.96-1.89-.04-3.71,.2-5.32,.75-3.22-1.79-6.42-2.9-9.51-3.34,2.47-.38,5-.58,7.58-.58m-44.2,32.22c-1.84,2.52-3.36,5.21-4.51,8.04,.88-4.6,2.4-8.97,4.46-13.02-.19,1.62-.18,3.29,.05,4.99m-5.4,17.38c0-.44,.02-.87,.03-1.31,1.18,4.2,3.55,8.52,7.16,12.71-.99,3.9-1.31,7.49-1,10.71-.87-1.01-1.65-2.03-2.37-3.05-2.45-5.87-3.82-12.31-3.82-19.07m6.35,23.44c.06,.4,.13,.78,.21,1.17-.5-.87-.98-1.75-1.42-2.66,.39,.5,.79,.99,1.21,1.49m2.09,4.22c-.2-.78-.36-1.59-.48-2.44,.67,.7,1.38,1.39,2.12,2.08,3.81,3.52,8.26,6.58,13.1,9.12-.18,2.43-.03,4.37,.42,5.81-6.03-3.73-11.21-8.7-15.17-14.57m59.81,16.28c2.54-.53,2.74-.59,6.57-1.86,0,0,0,0,0,0,0,0,.02,0,.03-.01,0,0,0,0,0,0h0c.99-.37,1.93-.78,2.83-1.21-3.99,2.75-8.4,4.94-13.11,6.44,1.3-.9,2.53-2.01,3.67-3.35m11.88-4.88c-1.35,.73-2.81,1.4-4.39,1.99-2.11,.79-4.37,1.43-6.69,1.9,1.9-2.49,3.54-5.65,4.83-9.44,2.45-.49,4.84-1.17,7.08-2.01,0,0,.01,0,.02,0,0,0,.01,0,.02,0h0c2.23-.84,4.25-1.82,6.04-2.92-1.18,3.32-2.76,6.2-4.69,8.65-.72,.63-1.46,1.25-2.22,1.84m8.72-11.69h0c2.05-1.5,3.52-2.92,4.63-4.28-2.19,4.14-4.94,7.93-8.16,11.27,1.41-2.08,2.6-4.41,3.52-7m.53-1.62s.01-.05,.02-.07c1.19-3.96,1.7-8.18,1.62-12.52,3.99-2.86,6.64-6.43,7.91-10.39,.04,.46,.06,.93,.08,1.39-.48,5.78-1.96,11.28-4.26,16.33-1.41,1.92-3.19,3.7-5.38,5.26m-.76-56.32c-1.01-.89-2.1-1.72-3.27-2.47-.61-1.19-1.38-2.39-2.32-3.57,2.03,1.85,3.9,3.88,5.59,6.04"/>
        <path class="cls-1" d="M205.4,68.83h-55.07v14.78h18.42v48.99h18.3v-49.11h18.36v-14.66Zm27.83,48.95v-48.96h-18.09v63.81h47.22v-14.85h-29.13Zm-92.66,14.77v-63.72h-18.19v22.72h-21.09v-22.7h-18.15v63.62h18.2v-25.96h21.1v26.04h18.13Z"/>
      </g>
    </g>
  </g>
</svg>
